<?xml version="1.0" encoding="utf-8"?>
<!-- Generator: Adobe Illustrator 21.0.0, SVG Export Plug-In . SVG Version: 6.00 Build 0)  -->
<svg version="1.1" id="Layer_1" xmlns="http://www.w3.org/2000/svg" xmlns:xlink="http://www.w3.org/1999/xlink" x="0px" y="0px"
	 viewBox="0 0 320 320" style="enable-background:new 0 0 320 320;" xml:space="preserve">
<style type="text/css">
	.st0{fill:#FBFCFD;}
	.st1{fill:none;}
	.st2{fill:#93B4CB;}
	.st3{fill:#D8E4EC;}
	.st4{fill:#C7D8E4;}
	.st5{fill:#A5C0D3;}
	.st6{fill:#82A8C3;}
</style>
<rect class="st0" width="320" height="320"/>
<g>
	<path class="st5" d="M280.1,228.1c-13.1-14.2-60.8-28.5-60.8-28.5S173.9,235,159.5,235c-0.1,0-0.4,0-0.5,0
		c-14.3,0-59.8-35.4-59.8-35.4s-47.6,14.1-60.8,28.3c-13.1,14.2-17.3,61.3-17.3,61.3L18.6,320h282.8l-4-30.7
		C297.4,289.3,293.2,242.3,280.1,228.1z"/>
	<path class="st0" d="M103.2,320c1.5-2,3.1-5.3,4-9.6c2.1-9.6,1.3-29.3,1.3-29.3l-3.1-4.6c0,0,0.6,26.3-2,34.4
		c-1.3,4-2.7,6.6-3.9,8.2c-1.5-1.4-3.4-3.7-5.5-7.6c-3.9-7.4-8.2-33.4-8.2-33.4l-2.3,5.1c0,0,2.9,19.4,6.7,28.5
		c1.6,3.8,3.5,6.3,5.4,8.3C95.6,320,103,320,103.2,320z"/>
	<path class="st3" d="M112.4,111.8c-1.2-0.7-9.4-1-12.1,0.5c-2.7,1.4-4.3,4.3-4.6,9.7c-0.1,2.8,6.4,22.6,13.1,25.4
		c3.6,1.5,12.1,1.9,15-2.2c2.9-4.1,1.3-7.6,1.3-7.6l-5.8-23.9L112.4,111.8z"/>
	<path class="st3" d="M161,167.3h-1.6h-36.8c-0.2,0.9-0.3,1.8-0.5,2.7c-1.1,5.3-1.9,10-4.1,13.2c-2.8,4-5.5,5.7-7.8,8.1
		c-5.8,6.2-10,8.6-10,8.6l4.6,25.1l55.4,21l9.9-3.8l6.4-37.6C176.5,204.6,161,167.3,161,167.3z"/>
	<path class="st4" d="M197.8,167.3H161h-1.6h-36.8c-0.2,0.9-0.3,1.8-0.5,2.7c4.4,13.9,37,62.8,48.1,72.3l44.7-16.9
		c0.3-0.3,0.6-0.6,0.9-1l4.5-24.5C220.2,199.9,203.4,199,197.8,167.3z"/>
	<path class="st3" d="M206.7,111.8c1.2-0.7,9.4-1,12.1,0.5c2.7,1.4,4.3,4.3,4.6,9.7c0.1,2.8-6.4,22.6-13.1,25.4
		c-3.6,1.5-12.1,1.9-15-2.2c-2.9-4.1-1.3-7.6-1.3-7.6l5.8-23.9L206.7,111.8z"/>
	<path class="st6" d="M108.4,196.2c-3.8,2.8-12.1,12.7-13,24.4c-0.8,10.1,0.9,20.2,0.9,20.2s10.3,0.4,11.9,16.7
		c0.6,6.5,0.5,25.4,0.5,25.4l-4.1-0.2c0,0-0.6-14.2-1.5-23.3c-1.6-15.9-15.3-16.4-17.2,0.1c-0.6,5.4,2.2,24.3,2.2,24.3l-4.9,0.5
		c0,0-3.8-18.7-2.7-27.7c1.6-13.1,9.5-15.7,9.5-15.7s-0.2-3.7-0.4-12.9c-0.2-10.4,1.3-17.8,7.5-27.3c4.6-7,16.5-14.7,16.5-14.7
		s3.8-2.5,4.4-2.8C117.9,183.1,114.5,191.7,108.4,196.2z"/>
	<g>
		<g>
			<path class="st0" d="M226,264.1l0.2-20.6l-4.7-0.6l-0.7,21.2c-5.4,1.1-9.5,6-9.5,11.7c0,6.6,5.4,12,12,12c6.6,0,12-5.4,12-12
				C235.3,270.1,231.3,265.3,226,264.1z"/>
			<path class="st4" d="M232.2,276.2c0,5-4.1,9.1-9.1,9.1s-9.1-4.1-9.1-9.1s4.1-9.1,9.1-9.1S232.2,271.2,232.2,276.2z"/>
			<path class="st0" d="M228.9,276.3c0,3.4-2.8,6.2-6.2,6.2s-6.2-2.8-6.2-6.2c0-3.4,2.8-6.2,6.2-6.2S228.9,272.9,228.9,276.3z"/>
		</g>
		<path class="st6" d="M226.2,213.4c-1.1-20-18.9-25.7-18.9-25.7s-2.6-0.8-3.1-0.9c0,0,2.9,6.1,8.8,10.1c0,0,4.9,4.7,6.4,17.9
			s0.8,31.1,0.8,31.1h6.6C226.8,246.1,227.4,233.4,226.2,213.4z"/>
	</g>
	<path class="st3" d="M206.4,96.4c0,0-0.7-34.3-13.6-45.1c-6.7-5.6-19.2-6.7-32.3-5.6c-0.1,0-0.2,0-0.2,0
		c-13.2-1.2-25.8-3.4-32.6,2.2c-12.9,10.9-13.6,48.4-13.6,48.4c0.1,3.1-9.5,16.3-7.7,25.6c1.9,9.3,6.2,26.4,7.8,31.6
		c3.4,10.7-0.7,7.9,12.5,22.8c5.1,5.7,14.8,17.6,21.2,18.9c3.1,0.6,7.6,1.3,11.9,1.6v0.1c0.1,0,0.2,0,0.4,0c0.1,0,0.2,0,0.2,0h0.1
		v-0.1c4.3-0.3,8.8-1,11.9-1.6c6.4-1.3,16.1-13.2,21.2-18.9c13.2-14.9,9.1-12.2,12.5-22.8c1.7-5.2,6-22.4,7.8-31.6
		C215.9,112.7,206.2,99.4,206.4,96.4z"/>
	<path class="st3" d="M160.6,196.9c4.3-0.3,8.8-1,11.9-1.6c6.4-1.3,16.1-13.2,21.2-18.9c13.2-14.9,9.1-12.2,12.5-22.8
		c1.7-5.2,6-22.4,7.8-31.6c0.3-9.3-7.8-22.5-7.7-25.6c0,0-0.7-34.3-13.6-45.1c-6.7-5.6-19.2-6.7-32.3-5.6V197
		C160.5,196.9,160.5,196.9,160.6,196.9L160.6,196.9z"/>
	<path class="st2" d="M213.7,118.1c0,0,7.6-40.7-2-60c-9.6-19.4-22.8-16.4-22.8-16.4s-7.2-17.3-42.2-6.2
		c-34.9,11.1-44.2,30.9-43.6,51.9c0.8,29.1,2.5,30.9,2.5,30.9l3.6,0.2c0,0,1.8-13.2,6.7-23.3c7.1-14.5,12.5-22.3,12.5-22.3
		s-0.3,2.5-6.6,16.4c-2.3,5.1-8.5,17.9-8.5,17.9s14-2.7,39-12.4S187.1,67,187.1,67s12,3.4,17.1,25
		C206.9,103.2,207.5,110.6,213.7,118.1z"/>
</g>
</svg>
